<svg width="12" height="24" viewBox="0 0 12 24" fill="none" xmlns="http://www.w3.org/2000/svg">
<path id="&#236;&#153;&#188;" d="M1.21438 9.6444e-07C1.53395 9.92378e-07 1.83755 0.142171 2.06125 0.390967L11.6485 11.0537C11.8722 11.3025 12 11.6401 12 11.9956C12 12.351 11.8722 12.6886 11.6485 12.9374L2.06125 23.6001C1.59787 24.1333 0.83089 24.1333 0.367508 23.6001C-0.111853 23.0848 -0.111852 22.2318 0.367508 21.7164L9.10786 11.9956L0.351531 2.27471C0.12783 2.02592 4.32052e-08 1.68826 7.42773e-08 1.33284C1.05349e-07 0.977418 0.12783 0.639766 0.351531 0.390967C0.575234 0.142171 0.878828 9.35105e-07 1.1984 9.63043e-07L1.21438 9.6444e-07Z" fill="white"/>
</svg>