<svg width="14" height="24" viewBox="0 0 14 24" fill="none" xmlns="http://www.w3.org/2000/svg">
<path d="M1.41678 24C1.78961 24 2.14381 23.8578 2.40479 23.609L13.5899 12.9463C13.8509 12.6975 14 12.3599 14 12.0044C14 11.649 13.8509 11.3114 13.5899 11.0626L2.40479 0.399852C1.86418 -0.133284 0.969374 -0.133284 0.428761 0.399852C-0.130493 0.915217 -0.130493 1.76823 0.428761 2.2836L10.6258 12.0044L0.41012 21.7253C0.149135 21.9741 0 22.3117 0 22.6672C0 23.0226 0.149135 23.3602 0.41012 23.609C0.671105 23.8578 1.0253 24 1.39814 24H1.41678Z" fill="#FDFDFD"/>
</svg>
