<svg width="14" height="24" viewBox="0 0 14 24" fill="none" xmlns="http://www.w3.org/2000/svg">
<path d="M12.5832 24C12.2104 24 11.8562 23.8578 11.5952 23.609L0.41012 12.9463C0.149134 12.6975 0 12.3599 0 12.0044C0 11.649 0.149134 11.3114 0.41012 11.0626L11.5952 0.399852C12.1358 -0.133284 13.0306 -0.133284 13.5712 0.399852C14.1305 0.915217 14.1305 1.76823 13.5712 2.2836L3.37417 12.0044L13.5899 21.7253C13.8509 21.9741 14 22.3117 14 22.6672C14 23.0226 13.8509 23.3602 13.5899 23.609C13.3289 23.8578 12.9747 24 12.6019 24H12.5832Z" fill="#FDFDFD"/>
</svg>
