<svg xmlns="http://www.w3.org/2000/svg" width="6" height="3" viewBox="0 0 6 3" fill="none">
  <path d="M6 0.303595C6 0.383489 5.96446 0.459388 5.90226 0.515313L3.23658 2.91212C3.17438 2.96804 3.08997 3 3.00111 3C2.91225 3 2.82784 2.96804 2.76564 2.91212L0.0999631 0.515313C-0.0333209 0.399467 -0.0333209 0.207723 0.0999631 0.0918772C0.228804 -0.0279629 0.442059 -0.0279629 0.5709 0.0918772L3.00111 2.27696L5.43132 0.0878828C5.49352 0.0319574 5.57793 5.40067e-09 5.66679 9.28468e-09C5.75565 1.31687e-08 5.84006 0.0319574 5.90226 0.0878828C5.96446 0.143808 6 0.219707 6 0.2996L6 0.303595Z" fill="#69A1F8"/>
</svg>