<svg xmlns="http://www.w3.org/2000/svg" width="6" height="3" viewBox="0 0 6 3" fill="none">
  <path d="M-1.17864e-07 2.6964C-1.14371e-07 2.61651 0.0355424 2.54061 0.097742 2.48469L2.76342 0.0878827C2.82562 0.0319573 2.91003 -1.35067e-07 2.99889 -1.31183e-07C3.08775 -1.27299e-07 3.17216 0.0319573 3.23436 0.0878827L5.90004 2.48469C6.03332 2.60053 6.03332 2.79228 5.90004 2.90812C5.7712 3.02796 5.55794 3.02796 5.4291 2.90812L2.99889 0.723036L0.568678 2.91212C0.506479 2.96804 0.422066 3 0.33321 3C0.244354 3 0.159941 2.96804 0.097742 2.91212C0.0355424 2.85619 -1.2153e-07 2.78029 -1.18038e-07 2.7004L-1.17864e-07 2.6964Z" fill="#EA4476"/>
</svg>