<svg width="50" height="50" viewBox="0 0 50 50" fill="none" xmlns="http://www.w3.org/2000/svg">
<g id="Frame 301">
<circle id="Ellipse 48" cx="25" cy="25" r="25" fill="#909090"/>
<path id="&#236;&#153;&#188;" d="M27.7856 37C27.466 37 27.1624 36.8578 26.9387 36.609L17.3515 25.9463C17.1278 25.6975 17 25.3599 17 25.0044C17 24.649 17.1278 24.3114 17.3515 24.0626L26.9387 13.3999C27.4021 12.8667 28.1691 12.8667 28.6325 13.3999C29.1119 13.9152 29.1119 14.7682 28.6325 15.2836L19.8921 25.0044L28.6485 34.7253C28.8722 34.9741 29 35.3117 29 35.6672C29 36.0226 28.8722 36.3602 28.6485 36.609C28.4248 36.8578 28.1212 37 27.8016 37L27.7856 37Z" fill="#FDFDFD"/>
</g>
</svg>
