<svg xmlns="http://www.w3.org/2000/svg" width="24" height="24" viewBox="0 0 24 24" fill="none">
<mask id="mask0_1580_3903" style="mask-type:alpha" maskUnits="userSpaceOnUse" x="0" y="0" width="24" height="24">
<rect width="24" height="24" fill="#D9D9D9"/>
</mask>
<g mask="url(#mask0_1580_3903)">
<path d="M11.9745 21C9.49292 21 7.37677 20.1271 5.62606 18.3814C3.87535 16.6356 3 14.5254 3 12.0508C3 9.57627 3.87535 7.44915 5.62606 5.66949C7.37677 3.88983 9.49292 3 11.9745 3C13.1643 3 14.3031 3.24576 15.3909 3.73729C16.4788 4.22881 17.4476 4.88136 18.2975 5.69492V4.35127C18.2975 3.60499 18.9024 3 19.6487 3C20.395 3 21 3.60499 21 4.35128V10.4915C21 11.0438 20.5523 11.4915 20 11.4915H13.8319C13.0877 11.4915 12.4844 10.8882 12.4844 10.1441C12.4844 9.39989 13.0877 8.79661 13.8319 8.79661H17.2776C16.6997 7.88136 15.9433 7.16102 15.0085 6.63559C14.0737 6.11017 13.0623 5.84746 11.9745 5.84746C10.2238 5.84746 8.74079 6.44915 7.5255 7.65254C6.3102 8.85593 5.70255 10.322 5.70255 12.0508C5.70255 13.7966 6.3102 15.2754 7.5255 16.4873C8.74079 17.6992 10.2238 18.3051 11.9745 18.3051C13.3003 18.3051 14.5028 17.928 15.5822 17.1737C16.3835 16.6138 17.0044 15.9113 17.4451 15.0664C17.7244 14.5307 18.2459 14.1356 18.8501 14.1356C19.762 14.1356 20.4368 14.9984 20.0551 15.8266C19.4761 17.0826 18.6225 18.163 17.4943 19.0678C15.8881 20.3559 14.0482 21 11.9745 21Z" fill="#FAFAFA"/>
</g>
</svg>
