<svg xmlns="http://www.w3.org/2000/svg" width="22" height="16" viewBox="0 0 22 16" fill="none">
  <path d="M21.5407 2.46783C21.2794 1.50232 20.5559 0.74509 19.6241 0.47741C17.9082 2.28233e-05 11.0105 2.29387e-05 11.0105 2.29387e-05C11.0105 2.29387e-05 4.12583 -0.0114288 2.39211 0.47741C1.46508 0.745806 0.738168 1.50232 0.479588 2.46783C0.154301 4.29794 -0.00731106 6.15023 0.00025376 8.01111C-0.00318479 9.85982 0.15774 11.7092 0.479588 13.5279C0.738168 14.4934 1.46508 15.2506 2.39211 15.5226C4.10795 16 11.0105 16 11.0105 16C11.0105 16 17.8911 16 19.6241 15.5226C20.5559 15.2506 21.2794 14.4941 21.5407 13.5279C21.8564 11.7092 22.0104 9.85982 21.9994 8.01111C22.0104 6.15023 21.8598 4.29794 21.5407 2.46783ZM8.80708 11.4373V4.56991L14.5488 8.01111L8.80708 11.4373Z" fill="black"/>
</svg>