<svg width="7" height="12" viewBox="0 0 7 12" fill="none" xmlns="http://www.w3.org/2000/svg">
<path d="M0.708389 12C0.894807 12 1.0719 11.9289 1.2024 11.8045L6.79494 6.47316C6.92543 6.34876 7 6.17993 7 6.00222C7 5.82451 6.92543 5.65568 6.79494 5.53128L1.2024 0.199926C0.932091 -0.066642 0.484687 -0.066642 0.214381 0.199926C-0.0652466 0.457608 -0.0652466 0.884117 0.214381 1.1418L5.31292 6.00222L0.20506 10.8626C0.0745673 10.987 0 11.1559 0 11.3336C0 11.5113 0.0745673 11.6801 0.20506 11.8045C0.335553 11.9289 0.51265 12 0.699068 12H0.708389Z" fill="#151515"/>
</svg>
