<svg width="26" height="46" viewBox="0 0 26 46" fill="none" xmlns="http://www.w3.org/2000/svg">
<path id="&#236;&#152;&#164;" d="M2.63116 -2.04297e-06C3.32357 -1.98244e-06 3.98136 0.27249 4.46605 0.749353L25.2384 21.1862C25.723 21.6631 26 22.3103 26 22.9915C26 23.6727 25.723 24.3199 25.2384 24.7967L4.46605 45.2336C3.46205 46.2555 1.80027 46.2555 0.796272 45.2336C-0.242344 44.2458 -0.242344 42.6109 0.796273 41.6231L19.7337 22.9915L0.761656 4.35986C0.27697 3.883 3.73856e-06 3.23584 3.79812e-06 2.55461C3.85767e-06 1.87338 0.27697 1.22621 0.761656 0.749353C1.24634 0.272489 1.90413 -2.10653e-06 2.59654 -2.046e-06L2.63116 -2.04297e-06Z" fill="#FDFDFD" fill-opacity="0.4"/>
</svg>
