<svg width="271" height="69" viewBox="0 0 271 69" fill="none" xmlns="http://www.w3.org/2000/svg">
<path d="M3.6 17.384C3.6 10.376 7.104 5.144 16.08 5.144C25.056 5.144 28.56 10.376 28.56 17.384V34.472C28.56 41.48 25.056 46.712 16.08 46.712C7.104 46.712 3.6 41.48 3.6 34.472V17.384ZM37.92 46.232V5.624H40.8V46.232H37.92ZM16.08 44.216C23.184 44.216 25.68 40.184 25.68 34.472V17.384C25.68 11.672 23.184 7.64 16.08 7.64C8.976 7.64 6.48 11.672 6.48 17.384V34.472C6.48 40.184 8.976 44.216 16.08 44.216ZM16.08 30.584C15.888 26.792 14.496 25.688 11.376 25.544C14.496 25.4 15.888 24.296 16.08 20.504C16.272 24.296 17.616 25.4 20.784 25.544C17.616 25.688 16.272 26.792 16.08 30.584ZM59.265 5.624L67.185 46.232H64.305L56.865 8.12L49.425 46.232H46.545L54.465 5.624H59.265ZM65.361 22.664H72.945V5.624H75.825V46.232H72.945V25.16H65.361V22.664ZM81.105 46.232V5.624H83.985V46.232H81.105ZM106.05 46.232H103.074C104.85 32.984 106.098 20.072 106.338 8.12H89.97V5.624H109.41C109.314 9.32 109.17 12.92 108.978 16.424H116.13V5.624H119.01V46.232H116.13V34.232H107.49C107.058 38.264 106.578 42.2 106.05 46.232ZM124.29 46.232V5.624H127.17V46.232H124.29ZM108.834 18.92C108.546 23.288 108.21 27.512 107.778 31.736H116.13V18.92H108.834ZM142.684 17.384C142.684 10.376 145.948 5.144 154.924 5.144C163.9 5.144 167.164 10.376 167.164 17.384V34.472C167.164 41.48 163.9 46.712 154.924 46.712C145.948 46.712 142.684 41.48 142.684 34.472V17.384ZM175.084 46.232V5.624H177.964V22.664H184.204V25.16H177.964V46.232H175.084ZM154.924 44.216C162.028 44.216 164.284 40.184 164.284 34.472V17.384C164.284 11.672 162.028 7.64 154.924 7.64C147.82 7.64 145.564 11.672 145.564 17.384V34.472C145.564 40.184 147.82 44.216 154.924 44.216ZM154.924 30.584C154.732 26.792 153.34 25.688 150.22 25.544C153.34 25.4 154.732 24.296 154.924 20.504C155.116 24.296 156.46 25.4 159.628 25.544C156.46 25.688 155.116 26.792 154.924 30.584ZM185.869 17.384C185.869 10.376 189.373 5.144 198.349 5.144C207.325 5.144 210.829 10.376 210.829 17.384V34.472C210.829 41.48 207.325 46.712 198.349 46.712C189.373 46.712 185.869 41.48 185.869 34.472V17.384ZM220.189 46.232V5.624H223.069V46.232H220.189ZM198.349 44.216C205.453 44.216 207.949 40.184 207.949 34.472V17.384C207.949 11.672 205.453 7.64 198.349 7.64C191.245 7.64 188.749 11.672 188.749 17.384V34.472C188.749 40.184 191.245 44.216 198.349 44.216ZM198.349 30.584C198.157 26.792 196.765 25.688 193.645 25.544C196.765 25.4 198.157 24.296 198.349 20.504C198.541 24.296 199.885 25.4 203.053 25.544C199.885 25.688 198.541 26.792 198.349 30.584ZM229.294 18.152V5.624H266.254V8.12H232.174V15.656H266.494V18.152H249.214V22.856H266.734V25.352H228.814V22.856H246.334V18.152H229.294ZM229.294 46.232V36.536H263.374V32.264H229.294V29.768H266.254V39.032H232.174V43.736H266.734V46.232H229.294Z" fill="#FDFDFD"/>
<path d="M57.416 67.32H56.72V57.156H57.416V67.32ZM75.0416 59.592H74.3216C74.2616 58.632 73.1096 57.648 71.5136 57.636C69.8696 57.624 68.7656 58.344 68.6576 59.412C68.5496 60.468 69.4976 61.416 71.3216 61.644L72.0176 61.74C74.3096 62.052 75.4376 63.132 75.4376 64.584C75.4376 66.216 73.6856 67.464 71.5856 67.464C69.4856 67.464 67.5896 66.396 67.6736 64.5H68.3936C68.3456 66.108 69.9896 66.84 71.5856 66.84C73.3976 66.84 74.7176 65.832 74.7176 64.704C74.7176 63.6 74.2016 62.712 72.0056 62.364L71.3336 62.268C68.9336 61.92 67.8416 60.888 67.9376 59.424C68.0336 57.996 69.5096 57 71.5136 57.012C73.5416 57.024 74.9816 58.152 75.0416 59.592ZM85.745 67.32V57.156H92.093V57.78H86.441V61.716H91.853V62.34H86.441V66.696H88.685C89.885 66.696 91.073 66.66 92.093 66.54V67.164C91.073 67.284 89.825 67.32 88.625 67.32H85.745ZM110.201 62.028V64.464C110.201 66.132 108.605 67.464 106.241 67.464C103.877 67.464 102.281 65.892 102.281 63.984V60.492C102.281 58.584 103.877 57.012 106.241 57.012C108.605 57.012 110.081 58.344 110.081 59.892V60.492H109.385V60.108C109.385 58.572 108.269 57.636 106.241 57.636C104.213 57.636 102.977 58.812 102.977 60.708V63.768C102.977 65.664 104.213 66.84 106.241 66.84C108.269 66.84 109.505 65.904 109.505 64.248V62.628H106.241V62.028H110.201ZM124.399 67.32H123.703V63.12L119.971 57.156H120.715L124.051 62.472L127.387 57.156H128.131L124.399 63.12V67.32ZM138.142 67.32V57.156H144.49V57.78H138.838V61.716H144.25V62.34H138.838V66.696H141.082C142.282 66.696 143.47 66.66 144.49 66.54V67.164C143.47 67.284 142.222 67.32 141.022 67.32H138.142ZM162.7 67.32H162.004V57.156H162.7V67.32ZM173.306 67.308V57.156H176.57C179.69 57.156 180.95 59.208 180.95 62.196C180.95 65.184 179.69 67.308 176.582 67.308H173.306ZM174.026 66.672H176.582C179.246 66.672 180.194 64.824 180.194 62.196C180.194 59.568 179.246 57.78 176.582 57.78H174.026V66.672ZM177.026 63.492C176.978 62.544 176.63 62.268 175.85 62.232C176.63 62.196 176.978 61.92 177.026 60.972C177.074 61.92 177.41 62.196 178.202 62.232C177.41 62.268 177.074 62.544 177.026 63.492ZM191.083 63.984V60.492C191.083 58.584 192.739 57.012 195.103 57.012C197.467 57.012 199.123 58.584 199.123 60.492V63.984C199.123 65.892 197.467 67.464 195.103 67.464C192.739 67.464 191.083 65.892 191.083 63.984ZM191.779 63.768C191.779 65.664 193.075 66.84 195.103 66.84C197.131 66.84 198.427 65.664 198.427 63.768V60.708C198.427 58.812 197.131 57.636 195.103 57.636C193.075 57.636 191.779 58.812 191.779 60.708V63.768ZM195.103 63.492C195.055 62.544 194.707 62.268 193.927 62.232C194.707 62.196 195.055 61.92 195.103 60.972C195.151 61.92 195.487 62.196 196.279 62.232C195.487 62.268 195.151 62.544 195.103 63.492ZM209.549 67.308V57.156H210.269V66.684H211.961C213.161 66.684 213.989 66.648 215.009 66.528V67.152C213.989 67.272 213.101 67.308 211.901 67.308H209.549Z" fill="#FDFDFD"/>
</svg>
