<?xml version="1.0" encoding="utf-8"?>
<!-- Generator: Adobe Illustrator 24.2.0, SVG Export Plug-In . SVG Version: 6.00 Build 0)  -->
<svg version="1.1" id="레이어_1" xmlns="http://www.w3.org/2000/svg" xmlns:xlink="http://www.w3.org/1999/xlink" x="0px"
	 y="0px" viewBox="0 0 50 50" style="enable-background:new 0 0 50 50;" xml:space="preserve">
<style type="text/css">
	.st0{fill:#FF3C28;}
</style>
<g>
	<g>
		<g>
			<g>
				<g>
					<path class="st0" d="M11.83,18.14c3.59-0.05,4.41,2.76,4.41,4.63c0,1.88-1.47,2.14-1.47,2.14c1.35,0.21,2.43,1.41,2.43,3.82
						s-2.33,2.56-2.33,2.56l-3.92,0.27L8.8,22.22c0-0.71,0.47-1.28,1.4-1.28s1.12,0.84,1.12,0.84l0.42,1.92c0,0,1.09,0,1.23,0
						s1.22-0.26,0.84-1.88c-0.37-1.61-1.63-1.64-1.63-1.64s-1.99,0-2.98,0c-0.99,0-1.48-0.86-1.48-0.86l-0.73-1.33L11.83,18.14z
						 M12.81,29.32l1.17-0.1c0,0,0.92-0.05,0.92-1.23c0-1.18-0.61-2.25-1.63-2.25h-1.12L12.81,29.32z"/>
				</g>
			</g>
			<g>
				<path class="st0" d="M17.54,21.21h2.53l0.53,8.33c0,0,0.04,0.93,0.81,0.93s0.78-0.82,0.78-0.94s-0.2-7.72-0.2-7.72
					s0.14-0.99,1.18-0.99c1.04,0,1.12,1.02,1.12,1.02l0.12,9.74c0,0-0.78,0.07-1.03,0.07s-0.93-0.12-1.13-0.75
					c0,0-0.37,1.09-1.94,1.09c-1.56,0-1.94-1.54-1.94-1.54L17.54,21.21z"/>
			</g>
			<path class="st0" d="M27.9,18.6c0,0,1.4-0.15,1.94,1.33c0,0,0.32-0.94,1.42-0.94h0.75l-0.99,8.85c0,0-0.06,2.36-2.99,2.36
				c0,0-2.37,0.16-2.5-1.83c0,0-0.01-1.08,0.91-1.08c0,0,0.89-0.09,0.89,0.93c0,0,0.06,0.84,0.72,0.84s1.01-0.4,1.15-2.89
				c0,0-0.5,0.91-1.91,0.91s-2.11-0.88-1.94-3.53C25.51,20.91,25.46,18.72,27.9,18.6z M27.76,21.52c-0.05,0.36-0.24,2.62-0.24,3.02
				s0.11,1.17,0.81,1.17s0.82-0.67,0.91-1.13s0.22-1.53,0.29-2.96c0.06-1.43-0.77-1.4-0.77-1.4C27.97,20.22,27.81,21.16,27.76,21.52
				z"/>
			<path class="st0" d="M32,26.95h1.88c0,0-0.47,1.48,0.38,1.48c0.86,0,0.96-1.23,0.96-1.23s0.09-0.75-0.89-1.28
				s-1.74-1.45-1.66-2.6c0.07-1.14,0.62-3.73,3.37-3.73c0,0,2.07-0.14,2.07,1.89c0,2.02-1.01,2.09-1.25,2.09
				c0,0-0.78-0.01-0.78-0.75c0-0.73,0.31-1.42-0.37-1.42s-0.97,0.96-0.97,1.25c0,0.3,0.02,0.67,0.63,1.16
				c0.61,0.48,1.73,1.07,1.73,2.58c0,1.51-1.15,3.55-3.33,3.55C31.57,29.95,31.77,28.44,32,26.95z"/>
			<path class="st0" d="M38.03,27.9c0,0.53,0.43,0.96,0.96,0.96s0.96-0.43,0.96-0.96s-0.43-0.96-0.96-0.96S38.03,27.37,38.03,27.9z"
				/>
			<path class="st0" d="M40.38,19.08H43l-2.73,6.79c0,0-0.22,0.58-0.82,0.58c0,0-0.77,0.02-0.61-0.91L40.38,19.08z"/>
		</g>
	</g>
	<path class="st0" d="M25,2c12.68,0,23,10.32,23,23S37.68,48,25,48S2,37.68,2,25S12.32,2,25,2 M25,0C11.19,0,0,11.19,0,25
		s11.19,25,25,25s25-11.19,25-25S38.8,0,25,0L25,0z"/>
</g>
</svg>
