<?xml version="1.0" encoding="utf-8"?>
<!-- Generator: Adobe Illustrator 24.2.0, SVG Export Plug-In . SVG Version: 6.00 Build 0)  -->
<svg version="1.1" id="레이어_1" xmlns="http://www.w3.org/2000/svg" xmlns:xlink="http://www.w3.org/1999/xlink" x="0px"
	 y="0px" viewBox="0 0 50 50" style="enable-background:new 0 0 50 50;" xml:space="preserve">
<style type="text/css">
	.st0{fill:#E1E1E1;}
</style>
<g>
	<g>
		<g>
			<path class="st0" d="M14.5,23.1c0-0.07,0.03-0.14,0.08-0.18c1.41-1.24,2.8-1.84,4.94-1.95c1.84-0.12,3.61,0.22,5.36,0.73
				c3.41,1,6.76,0.82,10.04-0.51c0.51-0.21,0.57-0.03,0.57,0.43c-0.02,1.76-0.02,3.52,0,5.29c0,0.49-0.05,0.52-0.45,0.68
				c-3.02,1.28-6.2,1.29-9.2,0.38c-2.91-0.88-4.72-0.79-5.02-0.77c-0.03,0-0.04,0.02-0.04,0.05c0.02,2.04,0.02,11.93,0.02,13.48
				c0,0.12-0.09,0.21-0.21,0.22L14.71,41c-0.12,0-0.22-0.1-0.21-0.22C14.5,39.08,14.5,24.51,14.5,23.1z"/>
		</g>
		<g>
			<path class="st0" d="M14.5,10.75c0-0.09,0.04-0.18,0.12-0.23c1.31-0.99,2.8-1.4,4.86-1.44c1.76-0.04,3.45,0.23,5.12,0.79
				c3.51,1.19,7.31,0.92,10.77-0.86c0.06-0.03,0.13,0.01,0.13,0.08c0,0.87,0,5.36,0,6.06c0,0.1-0.05,0.19-0.14,0.24
				c-2.32,1.3-5.36,1.74-7.97,1.45c-1.41-0.17-2.73-0.7-4.1-1.03c-2.39-0.57-4.76-0.6-7.09,0.31c-0.41,0.16-0.8,0.37-1.16,0.62
				c-0.07,0.05-0.26,0.19-0.39,0.29c-0.06,0.04-0.14,0-0.14-0.07C14.49,16.1,14.5,11.62,14.5,10.75z"/>
		</g>
	</g>
	<path class="st0" d="M25,2c12.68,0,23,10.32,23,23S37.68,48,25,48S2,37.68,2,25S12.32,2,25,2 M25,0C11.19,0,0,11.19,0,25
		s11.19,25,25,25s25-11.19,25-25S38.8,0,25,0L25,0z"/>
</g>
</svg>
