<?xml version="1.0" encoding="utf-8"?>
<!-- Generator: Adobe Illustrator 24.2.0, SVG Export Plug-In . SVG Version: 6.00 Build 0)  -->
<svg version="1.1" id="레이어_1" xmlns="http://www.w3.org/2000/svg" xmlns:xlink="http://www.w3.org/1999/xlink" x="0px"
	 y="0px" viewBox="0 0 50 50" style="enable-background:new 0 0 50 50;" xml:space="preserve">
<style type="text/css">
	.st0{fill-rule:evenodd;clip-rule:evenodd;fill:#E1E1E1;}
	.st1{fill:#E1E1E1;}
</style>
<g>
	<g>
		<g>
			<ellipse class="st0" cx="33.22" cy="13.22" rx="4.28" ry="4.22"/>
		</g>
		<g>
			<path class="st0" d="M23.99,18.35c-6.35,0-11.5,5.07-11.5,11.33c0,6.26,5.15,11.33,11.5,11.33s11.5-5.07,11.5-11.33
				C35.49,23.42,30.34,18.35,23.99,18.35z M23.99,35.22c-2.82,0-5.1-2.48-5.1-5.55c0-3.06,2.28-5.55,5.1-5.55s5.1,2.48,5.1,5.55
				S26.81,35.22,23.99,35.22z"/>
		</g>
	</g>
	<path class="st1" d="M25,2c12.68,0,23,10.32,23,23S37.68,48,25,48S2,37.68,2,25S12.32,2,25,2 M25,0C11.19,0,0,11.19,0,25
		s11.19,25,25,25s25-11.19,25-25S38.8,0,25,0L25,0z"/>
</g>
</svg>
