<?xml version="1.0" encoding="utf-8"?>
<!-- Generator: Adobe Illustrator 24.2.0, SVG Export Plug-In . SVG Version: 6.00 Build 0)  -->
<svg version="1.1" id="레이어_1" xmlns="http://www.w3.org/2000/svg" xmlns:xlink="http://www.w3.org/1999/xlink" x="0px"
	 y="0px" viewBox="0 0 50 50" style="enable-background:new 0 0 50 50;" xml:space="preserve">
<style type="text/css">
	.st0{fill:#E1E1E1;}
</style>
<g>
	<g>
		<path class="st0" d="M25,8C15.61,8,8,15.61,8,25s7.61,17,17,17s17-7.61,17-17C42,15.62,34.39,8.01,25,8L25,8z M32.79,32.52
			c-0.3,0.5-0.96,0.66-1.46,0.35c-3.99-2.44-9.02-2.99-14.93-1.64c-0.57,0.13-1.14-0.23-1.27-0.8c-0.13-0.57,0.23-1.14,0.8-1.27
			c6.48-1.48,12.03-0.84,16.51,1.9C32.94,31.37,33.1,32.02,32.79,32.52z M34.87,27.9c-0.38,0.62-1.2,0.82-1.82,0.44
			c-4.57-2.81-11.54-3.62-16.94-1.98c-0.7,0.21-1.44-0.18-1.65-0.88s0.18-1.44,0.88-1.65c6.17-1.87,13.85-0.97,19.1,2.26
			C35.06,26.46,35.26,27.27,34.87,27.9L34.87,27.9z M35.05,23.07c-5.48-3.25-14.52-3.55-19.75-1.97c-0.84,0.25-1.73-0.22-1.98-1.06
			s0.22-1.73,1.06-1.98c6-1.82,15.99-1.47,22.3,2.27c0.76,0.45,1,1.42,0.56,2.18C36.79,23.27,35.81,23.52,35.05,23.07L35.05,23.07z"
			/>
	</g>
	<path class="st0" d="M25,2c12.68,0,23,10.32,23,23S37.68,48,25,48S2,37.68,2,25S12.32,2,25,2 M25,0C11.19,0,0,11.19,0,25
		s11.19,25,25,25s25-11.19,25-25S38.8,0,25,0L25,0z"/>
</g>
</svg>
