<?xml version="1.0" encoding="utf-8"?>
<!-- Generator: Adobe Illustrator 24.2.0, SVG Export Plug-In . SVG Version: 6.00 Build 0)  -->
<svg version="1.1" id="레이어_1" xmlns="http://www.w3.org/2000/svg" xmlns:xlink="http://www.w3.org/1999/xlink" x="0px"
	 y="0px" viewBox="0 0 50 50" style="enable-background:new 0 0 50 50;" xml:space="preserve">
<style type="text/css">
	.st0{fill:url(#SVGID_1_);}
	.st1{fill:url(#SVGID_2_);}
	.st2{fill:url(#SVGID_3_);}
	.st3{fill:url(#SVGID_4_);}
	.st4{fill:url(#SVGID_5_);}
	.st5{fill:url(#SVGID_6_);}
</style>
<g>
	<g>
		<g>
			
				<linearGradient id="SVGID_1_" gradientUnits="userSpaceOnUse" x1="8.3051" y1="33.2749" x2="27.4914" y2="14.0887" gradientTransform="matrix(1 0 0 -1 0 52)">
				<stop  offset="0" style="stop-color:#ED1D7E"/>
				<stop  offset="1" style="stop-color:#951CE1"/>
			</linearGradient>
			<path class="st0" d="M13.31,16.6H9.16C9.07,16.6,9,16.67,9,16.76v9.79c0,0.09,0.07,0.16,0.16,0.16h4.15
				c0.09,0,0.16-0.07,0.16-0.16v-9.79C13.47,16.67,13.4,16.6,13.31,16.6z"/>
		</g>
		<g>
			
				<linearGradient id="SVGID_2_" gradientUnits="userSpaceOnUse" x1="11.4198" y1="36.3183" x2="30.5791" y2="17.1589" gradientTransform="matrix(1 0 0 -1 0 52)">
				<stop  offset="0" style="stop-color:#ED1D7E"/>
				<stop  offset="1" style="stop-color:#951CE1"/>
			</linearGradient>
			<path class="st1" d="M20.19,12.5h-4.15c-0.09,0-0.16,0.07-0.16,0.16v19.43c0,0.09,0.07,0.16,0.16,0.16h4.15
				c0.09,0,0.16-0.07,0.16-0.16V12.66C20.35,12.58,20.28,12.5,20.19,12.5z"/>
		</g>
		<g>
			
				<linearGradient id="SVGID_3_" gradientUnits="userSpaceOnUse" x1="22.1802" y1="46.9298" x2="41.3664" y2="27.7436" gradientTransform="matrix(1 0 0 -1 0 52)">
				<stop  offset="0" style="stop-color:#ED1D7E"/>
				<stop  offset="1" style="stop-color:#951CE1"/>
			</linearGradient>
			<path class="st2" d="M40.84,16.6h-4.15c-0.09,0-0.16,0.07-0.16,0.16v9.79c0,0.09,0.07,0.16,0.16,0.16h4.15
				c0.09,0,0.16-0.07,0.16-0.16v-9.79C41,16.67,40.93,16.6,40.84,16.6z"/>
		</g>
		<g>
			
				<linearGradient id="SVGID_4_" gradientUnits="userSpaceOnUse" x1="18.3685" y1="43.1377" x2="37.5279" y2="23.9784" gradientTransform="matrix(1 0 0 -1 0 52)">
				<stop  offset="0" style="stop-color:#ED1D7E"/>
				<stop  offset="1" style="stop-color:#951CE1"/>
			</linearGradient>
			<path class="st3" d="M33.96,12.5h-4.15c-0.09,0-0.16,0.07-0.16,0.16v19.43c0,0.09,0.07,0.16,0.16,0.16h4.15
				c0.09,0,0.16-0.07,0.16-0.16V12.66C34.12,12.58,34.04,12.5,33.96,12.5z"/>
		</g>
		<g>
			
				<linearGradient id="SVGID_5_" gradientUnits="userSpaceOnUse" x1="11.5577" y1="36.4073" x2="30.7184" y2="17.2466" gradientTransform="matrix(1 0 0 -1 0 52)">
				<stop  offset="0" style="stop-color:#ED1D7E"/>
				<stop  offset="1" style="stop-color:#951CE1"/>
			</linearGradient>
			<path class="st4" d="M27.07,19.55h-4.15c-0.09,0-0.16,0.07-0.16,0.16v18.64c0,0.09,0.07,0.16,0.16,0.16h4.15
				c0.09,0,0.16-0.07,0.16-0.16V19.71C27.23,19.62,27.16,19.55,27.07,19.55z"/>
		</g>
	</g>
	
		<linearGradient id="SVGID_6_" gradientUnits="userSpaceOnUse" x1="7.3203" y1="44.6778" x2="42.6778" y2="9.3203" gradientTransform="matrix(1 0 0 -1 0 52)">
		<stop  offset="0" style="stop-color:#ED1D7E"/>
		<stop  offset="1" style="stop-color:#951CE1"/>
	</linearGradient>
	<path class="st5" d="M25,2c12.68,0,23,10.32,23,23S37.68,48,25,48S2,37.68,2,25S12.32,2,25,2 M25,0C11.19,0,0,11.19,0,25
		s11.19,25,25,25s25-11.19,25-25S38.8,0,25,0L25,0z"/>
</g>
</svg>
