<svg width="26" height="46" viewBox="0 0 26 46" fill="none" xmlns="http://www.w3.org/2000/svg">
<path id="&#236;&#153;&#188;" d="M23.3688 46C22.6764 46 22.0186 45.7275 21.534 45.2506L0.761651 24.8138C0.276964 24.3369 0 23.6897 0 23.0085C0 22.3273 0.276964 21.6801 0.761651 21.2033L21.534 0.766383C22.5379 -0.255461 24.1997 -0.255461 25.2037 0.766383C26.2423 1.75417 26.2423 3.38912 25.2037 4.3769L6.26631 23.0085L25.2383 41.6401C25.723 42.117 26 42.7642 26 43.4454C26 44.1266 25.723 44.7738 25.2383 45.2506C24.7537 45.7275 24.0959 46 23.4035 46H23.3688Z" fill="#FDFDFD" fill-opacity="0.4"/>
</svg>
