<svg xmlns="http://www.w3.org/2000/svg" width="212" height="112" viewBox="0 0 212 112" fill="none">
  <path d="M4.88696 110.887C3.36504 110.343 2.03243 109.081 1.32576 107.514C0.562942 105.823 0.563405 101.557 1.32645 98.1384C3.26041 89.4733 7.95098 81.2716 14.7407 74.6835C19.2478 70.3102 22.5974 68.072 29.9028 64.5516C32.391 63.3527 34.5734 62.297 34.7523 62.2054C34.9992 62.0796 35.0662 61.5653 35.0296 60.0803C34.9706 57.6882 34.4217 53.2778 33.9508 51.4174C33.2912 48.8083 30.8712 45.0752 27.4232 41.3464L25.8421 39.6366L23.8033 39.9078C17.0915 40.8001 12.0112 43.3612 10.0176 46.8573C9.11701 48.437 8.56578 48.9664 7.82245 48.9664C7.46192 48.9664 6.95802 48.7578 6.70282 48.5028C5.59966 47.4008 6.31329 45.4523 8.77458 42.8476C11.924 39.5143 17.1386 37.2251 23.2908 36.4748C27.2007 35.9981 26.9457 35.9172 29.35 38.398C33.5086 42.6895 36.4269 47.1892 37.3238 50.6928C37.7976 52.5431 38.4861 57.8574 38.4866 59.6663V60.7476L41.0966 59.8603C46.1572 58.1406 47.9575 57.7002 48.6913 58.0041C49.0542 58.1543 49.4762 58.5789 49.6293 58.9481C49.9513 59.725 49.9785 59.6615 47.3063 64.3792C45.3624 67.8113 43.569 71.5347 42.8895 73.5499C42.2844 75.3438 42.0545 78.7646 42.4853 79.5602C42.7777 80.1003 42.9169 80.139 44.529 80.1288C46.0454 80.119 46.444 80.0189 47.7594 79.3176C48.6449 78.8455 50.1288 77.6882 51.3786 76.4951C53.3933 74.5721 53.5153 74.3991 53.8682 72.9712C54.5108 70.3689 56.0805 67.5953 58.7959 64.2635C60.9989 61.5599 61.8077 60.787 62.4318 60.787C63.2971 60.787 64.2388 61.6223 64.2388 62.3897C64.2388 64.413 61.2985 70.0608 58.0416 74.2921L57.0125 75.6294L57.8342 75.9724C59.4731 76.6566 59.8659 76.496 61.3873 74.5192C63.6468 71.5836 65.0464 69.3405 65.6176 67.7399C66.7551 64.5519 68.718 61.1875 69.7015 60.7397C70.4144 60.4152 71.5097 60.8463 71.8461 61.584L72.0897 62.118L73.6441 61.3365C75.3579 60.475 76.1694 60.3716 76.9471 60.9158C77.7783 61.4976 77.6373 62.6592 76.5603 64.0994C74.4767 66.886 73.4265 69.9966 73.4137 73.4183C73.4028 76.3646 73.7079 77.0942 74.9948 77.2001C78.0855 77.4541 84.3502 71.9954 87.9307 65.9286C88.584 64.8214 89.2366 63.8392 89.3807 63.7453C89.9351 63.3851 91.1334 63.5689 91.6253 64.0895C91.9997 64.486 92.0893 64.8054 91.9999 65.4222C91.9352 65.8683 91.76 67.0677 91.6106 68.0875C91.1613 71.1534 91.7095 73.9551 92.9491 74.9292C94.1302 75.8575 94.1666 75.7446 94.1682 71.1585C94.1701 65.4655 94.7946 61.3397 95.7913 60.4386C96.4386 59.8534 97.6526 59.9322 98.189 60.5939C98.5435 61.0315 98.605 61.4371 98.5382 62.904L98.4572 64.6833L100.082 63.0154C102.459 60.5749 105.429 58.7008 106.919 58.7008C107.768 58.7008 108.551 59.4151 108.551 60.1888C108.551 60.4972 108.193 61.9906 107.756 63.5073C105.398 71.6923 104.972 76.8643 106.606 77.4845C107.44 77.8013 107.489 77.7858 108.314 76.9528C110.085 75.1658 114.445 67.6166 116.446 62.8748C116.827 61.9711 117.651 61.5604 118.604 61.7993C119.654 62.0626 119.775 62.6298 119.447 65.7541C118.988 70.1301 119.304 73.4255 120.244 74.0522C121.461 74.8641 124.669 73.0166 125.771 70.8688C126.406 69.6318 128.934 65.8658 130.251 64.1952C131.535 62.567 132.151 62.2304 133.117 62.6305C133.936 62.9689 134.303 63.8473 134.303 65.4667C134.303 68.4512 135.779 72.5109 137.116 73.2014C138.603 73.9699 141.991 73.4806 145.09 72.0501C146.938 71.1972 150.082 69.2483 150.073 68.9613C150.07 68.8633 149.332 67.9485 148.433 66.9287C142.403 60.09 134.835 48.0761 130.984 39.232C128.572 33.6905 126.741 27.7887 125.663 22.0825C124.972 18.4223 124.918 11.1547 125.566 8.86988C126.575 5.30963 128.361 2.93583 131.01 1.63281C134.715 -0.189615 139.019 0.802135 143.718 4.5617C146.388 6.69771 149.818 10.6856 151.599 13.7246L152.474 15.2186L152.874 13.7593C153.438 11.7005 154.965 8.74055 156.217 7.27992C157.827 5.40188 159.26 4.30861 161.563 3.20028C164.46 1.80594 166.481 1.36557 169.348 1.50371C171.35 1.59989 171.837 1.71114 173.206 2.38398C176.075 3.79547 177.881 6.21539 178.885 9.99536C179.544 12.4769 179.534 17.4352 178.862 21.2697C177.159 30.9818 171.95 44.6568 166.533 53.6373C163.757 58.2377 159.043 64.9283 156.626 67.6979C155.549 68.9312 155.399 69.2098 155.671 69.4608C161.605 74.9271 170.224 79.3136 179.426 81.5495C186.221 83.2009 191.643 83.7613 201.927 83.8758C209.802 83.9634 210.3 83.994 210.723 84.417C211.272 84.9647 211.31 86.1664 210.795 86.6807C210.239 87.2361 208.515 87.4048 203.203 87.4236C192.836 87.4606 183.344 86.3342 175.861 84.1797C168.047 81.9301 160.638 78.0973 154.925 73.3497L152.695 71.4967L151.213 72.532C149.05 74.0424 144.902 76.022 142.792 76.5509C141.707 76.8228 140.18 77.0107 139.059 77.0107C137.406 77.0107 136.978 76.9192 135.74 76.3015C133.636 75.2514 132.483 73.5798 131.529 70.2001L131.137 68.8121L130.437 69.8404C130.051 70.406 129.306 71.6116 128.779 72.5192C126.918 75.7274 124.165 77.5334 121.079 77.5716C118.391 77.6048 116.897 76.3873 116.192 73.5903L115.811 72.0814L114.582 74.1148C111.411 79.3602 109.623 81.0281 107.173 81.0281C104.708 81.0281 102.851 79.3468 102.264 76.5834C101.844 74.6017 102.402 70.3506 103.799 64.8981C104.428 62.4402 99.7566 68.5124 98.2298 72.1364C97.6672 73.4721 97.6336 73.7381 97.78 75.7288C97.9238 77.6871 97.8967 77.92 97.4754 78.3409C96.8759 78.9398 95.2964 79.1674 93.7611 78.8763C90.8077 78.3161 89.0473 76.4809 88.297 73.1807L88.0081 71.9109L86.5744 73.5917C81.9924 78.9625 76.2207 81.7941 72.9388 80.281C71.7589 79.7371 71.1209 79.0392 70.4761 77.5874C70.0388 76.6028 69.9627 76.0188 69.9634 73.6501C69.9636 71.2255 70.0915 70.1779 70.6418 68.0875C70.8434 67.3222 69.9026 68.565 69.0834 70.1464C68.0835 72.0761 67.6506 74.3651 67.8446 76.6958C67.9882 78.4213 67.9596 78.6243 67.5121 79.0714C66.7959 79.7869 65.5647 79.7283 64.9518 78.9495C64.6873 78.6137 64.4708 78.1008 64.4708 77.8097C64.4708 76.658 64.23 76.5201 63.5955 77.3086C63.2658 77.7184 62.628 78.445 62.1782 78.9229C61.4063 79.7433 61.2813 79.792 59.9417 79.792C58.3632 79.792 56.3116 79.2643 55.4161 78.6281L54.8291 78.2109L53.11 79.7009C49.9564 82.4337 47.8571 83.4436 44.8673 83.6654C40.1999 84.0117 38.2017 81.3377 38.9214 75.7091C39.2554 73.0964 39.8405 71.4895 42.1596 66.8128C43.2658 64.582 44.2059 62.6778 44.2488 62.5809C44.2917 62.484 43.0389 62.8569 41.4648 63.4095L38.6028 64.4142L38.4581 67.2937C37.8604 79.169 34.0234 89.5264 27.2211 97.625C18.9415 107.483 10.0821 112.743 4.88696 110.887ZM11.3918 106.611C14.2867 105.204 17.7323 102.589 20.9316 99.3714C28.4459 91.8159 32.2115 84.7169 34.1742 74.4056C34.6215 72.0546 35.0632 67.7967 34.9695 66.7379L34.8908 65.8519L30.3668 68.13C23.3781 71.6489 20.2523 73.8675 15.9568 78.3569C9.96196 84.6224 5.91843 92.2741 4.48119 100.072C3.98749 102.751 4.12739 105.76 4.78743 106.648C5.96344 108.231 8.08531 108.219 11.3918 106.611V106.611ZM154.089 65.3642C156.713 62.2638 161.771 54.9832 164.097 50.9573C169.23 42.0733 173.915 29.5523 175.507 20.4585C176.03 17.4732 176.039 13.1792 175.527 10.9558C174.563 6.76724 172.413 4.92976 168.477 4.92976C164.032 4.92976 159.299 7.8371 157.381 11.7466C155.999 14.5631 155.606 16.5387 155.474 21.3566C155.343 26.1327 155.222 26.4845 153.711 26.4845C152.596 26.4845 152.229 25.9362 151.594 23.3134C150.203 17.5761 147.953 13.5554 143.781 9.35358C140.355 5.90297 137.51 4.23514 135.049 4.23467C133.349 4.23467 132.398 4.57978 131.197 5.63318C127.192 9.14592 127.648 20.3136 132.326 33.3232C134.99 40.7301 141.092 51.6698 146.934 59.512C149.037 62.335 152.611 66.581 152.884 66.581C152.98 66.581 153.522 66.0336 154.089 65.3642Z" fill="#F5F5F5"/>
</svg>